<svg xmlns="http://www.w3.org/2000/svg" width="1200" height="264" viewBox="34 0 1200 264">
<rect width="1268" height="264" fill="#ffffff"/>
<path d="M44,61 L44,54 L304,54 L304,61" stroke="#94a3b8" stroke-width="1.2" fill="none"/>
<text x="174.0" y="48" text-anchor="middle" font-family="sans-serif" font-size="9" fill="#64748b">root</text>
<path d="M376,61 L376,54 L636,54 L636,61" stroke="#94a3b8" stroke-width="1.2" fill="none"/>
<text x="506.0" y="48" text-anchor="middle" font-family="sans-serif" font-size="9" fill="#64748b">ba... node</text>
<path d="M820,61 L820,54 L1080,54 L1080,61" stroke="#94a3b8" stroke-width="1.2" fill="none"/>
<text x="950.0" y="48" text-anchor="middle" font-family="sans-serif" font-size="9" fill="#64748b">ca... node</text>
<path d="M1096,61 L1096,54 L1224,54 L1224,61" stroke="#94a3b8" stroke-width="1.2" fill="none"/>
<text x="1160.0" y="48" text-anchor="middle" font-family="sans-serif" font-size="9" fill="#64748b">car... node</text>
<rect x="44" y="65" width="40" height="40" rx="7" fill="#fdf2f8" stroke="#f9a8d4" stroke-width="2"/>
<text x="64" y="86" text-anchor="middle" dominant-baseline="central" font-family="monospace" font-size="15" font-weight="bold" fill="#1e293b">2</text>
<rect x="88" y="65" width="40" height="40" rx="7" fill="#fefce8" stroke="#fde047" stroke-width="2"/>
<text x="108" y="86" text-anchor="middle" dominant-baseline="central" font-family="monospace" font-size="15" font-weight="bold" fill="#1e293b">b</text>
<rect x="132" y="65" width="40" height="40" rx="7" fill="#fefce8" stroke="#fde047" stroke-width="2"/>
<text x="152" y="86" text-anchor="middle" dominant-baseline="central" font-family="monospace" font-size="15" font-weight="bold" fill="#1e293b">c</text>
<rect x="176" y="65" width="40" height="40" rx="7" fill="#ffffff" stroke="#cbd5e1" stroke-width="2"/>
<text x="196" y="86" text-anchor="middle" dominant-baseline="central" font-family="monospace" font-size="15" font-weight="bold" fill="#1e293b">1</text>
<rect x="220" y="65" width="40" height="40" rx="7" fill="#ffffff" stroke="#cbd5e1" stroke-width="2"/>
<text x="240" y="86" text-anchor="middle" dominant-baseline="central" font-family="monospace" font-size="15" font-weight="bold" fill="#1e293b">1</text>
<rect x="264" y="65" width="40" height="40" rx="7" fill="#eff6ff" stroke="#93c5fd" stroke-width="2"/>
<text x="284" y="86" text-anchor="middle" dominant-baseline="central" font-family="monospace" font-size="15" font-weight="bold" fill="#1e293b">9</text>
<rect x="320" y="65" width="40" height="40" rx="7" fill="#ffffff" stroke="#cbd5e1" stroke-width="2" stroke-dasharray="5,3"/>
<text x="340" y="86" text-anchor="middle" dominant-baseline="central" font-family="monospace" font-size="15" font-weight="bold" fill="#1e293b">a</text>
<rect x="376" y="65" width="40" height="40" rx="7" fill="#fdf2f8" stroke="#f9a8d4" stroke-width="2"/>
<text x="396" y="86" text-anchor="middle" dominant-baseline="central" font-family="monospace" font-size="15" font-weight="bold" fill="#1e293b">2</text>
<rect x="420" y="65" width="40" height="40" rx="7" fill="#fefce8" stroke="#fde047" stroke-width="2"/>
<text x="440" y="86" text-anchor="middle" dominant-baseline="central" font-family="monospace" font-size="15" font-weight="bold" fill="#1e293b">l</text>
<rect x="464" y="65" width="40" height="40" rx="7" fill="#fefce8" stroke="#fde047" stroke-width="2"/>
<text x="484" y="86" text-anchor="middle" dominant-baseline="central" font-family="monospace" font-size="15" font-weight="bold" fill="#1e293b">t</text>
<rect x="508" y="65" width="40" height="40" rx="7" fill="#ffffff" stroke="#cbd5e1" stroke-width="2"/>
<text x="528" y="86" text-anchor="middle" dominant-baseline="central" font-family="monospace" font-size="15" font-weight="bold" fill="#1e293b">1</text>
<rect x="552" y="65" width="40" height="40" rx="7" fill="#f0fdf4" stroke="#4ade80" stroke-width="2"/>
<text x="572" y="86" text-anchor="middle" dominant-baseline="central" font-family="monospace" font-size="15" font-weight="bold" fill="#1e293b">0</text>
<rect x="596" y="65" width="40" height="40" rx="7" fill="#eff6ff" stroke="#93c5fd" stroke-width="2"/>
<text x="616" y="86" text-anchor="middle" dominant-baseline="central" font-family="monospace" font-size="15" font-weight="bold" fill="#1e293b">2</text>
<rect x="652" y="65" width="40" height="40" rx="7" fill="#ffffff" stroke="#cbd5e1" stroke-width="2" stroke-dasharray="5,3"/>
<text x="672" y="86" text-anchor="middle" dominant-baseline="central" font-family="monospace" font-size="15" font-weight="bold" fill="#1e293b">l</text>
<rect x="708" y="65" width="40" height="40" rx="7" fill="#f0fdf4" stroke="#4ade80" stroke-width="2"/>
<text x="728" y="86" text-anchor="middle" dominant-baseline="central" font-family="monospace" font-size="15" font-weight="bold" fill="#1e293b">0</text>
<rect x="764" y="65" width="40" height="40" rx="7" fill="#ffffff" stroke="#cbd5e1" stroke-width="2" stroke-dasharray="5,3"/>
<text x="784" y="86" text-anchor="middle" dominant-baseline="central" font-family="monospace" font-size="15" font-weight="bold" fill="#1e293b">a</text>
<rect x="820" y="65" width="40" height="40" rx="7" fill="#fdf2f8" stroke="#f9a8d4" stroke-width="2"/>
<text x="840" y="86" text-anchor="middle" dominant-baseline="central" font-family="monospace" font-size="15" font-weight="bold" fill="#1e293b">2</text>
<rect x="864" y="65" width="40" height="40" rx="7" fill="#fefce8" stroke="#fde047" stroke-width="2"/>
<text x="884" y="86" text-anchor="middle" dominant-baseline="central" font-family="monospace" font-size="15" font-weight="bold" fill="#1e293b">r</text>
<rect x="908" y="65" width="40" height="40" rx="7" fill="#fefce8" stroke="#fde047" stroke-width="2"/>
<text x="928" y="86" text-anchor="middle" dominant-baseline="central" font-family="monospace" font-size="15" font-weight="bold" fill="#1e293b">t</text>
<rect x="952" y="65" width="40" height="40" rx="7" fill="#faf5ff" stroke="#a78bfa" stroke-width="2"/>
<text x="972" y="86" text-anchor="middle" dominant-baseline="central" font-family="monospace" font-size="15" font-weight="bold" fill="#1e293b">0</text>
<rect x="996" y="65" width="40" height="40" rx="7" fill="#f0fdf4" stroke="#4ade80" stroke-width="2"/>
<text x="1016" y="86" text-anchor="middle" dominant-baseline="central" font-family="monospace" font-size="15" font-weight="bold" fill="#1e293b">0</text>
<rect x="1040" y="65" width="40" height="40" rx="7" fill="#eff6ff" stroke="#93c5fd" stroke-width="2"/>
<text x="1060" y="86" text-anchor="middle" dominant-baseline="central" font-family="monospace" font-size="15" font-weight="bold" fill="#1e293b">3</text>
<rect x="1096" y="65" width="40" height="40" rx="7" fill="#fdf2f8" stroke="#f9a8d4" stroke-width="2"/>
<text x="1116" y="86" text-anchor="middle" dominant-baseline="central" font-family="monospace" font-size="15" font-weight="bold" fill="#1e293b">1</text>
<rect x="1140" y="65" width="40" height="40" rx="7" fill="#fefce8" stroke="#fde047" stroke-width="2"/>
<text x="1160" y="86" text-anchor="middle" dominant-baseline="central" font-family="monospace" font-size="15" font-weight="bold" fill="#1e293b">e</text>
<rect x="1184" y="65" width="40" height="40" rx="7" fill="#f0fdf4" stroke="#4ade80" stroke-width="2"/>
<text x="1204" y="86" text-anchor="middle" dominant-baseline="central" font-family="monospace" font-size="15" font-weight="bold" fill="#1e293b">0</text>
<text x="572" y="118" text-anchor="middle" font-family="sans-serif" font-size="9" fill="#15803d">leaf</text>
<text x="728" y="118" text-anchor="middle" font-family="sans-serif" font-size="9" fill="#15803d">leaf</text>
<text x="972" y="118" text-anchor="middle" font-family="sans-serif" font-size="9" fill="#7c3aed">bud</text>
<text x="1016" y="118" text-anchor="middle" font-family="sans-serif" font-size="9" fill="#15803d">leaf</text>
<text x="1204" y="118" text-anchor="middle" font-family="sans-serif" font-size="9" fill="#15803d">leaf</text>
<text x="44" y="180" font-family="sans-serif" font-size="13" font-weight="bold" letter-spacing="0.05em" fill="#1e293b">LEGEND</text>
<rect x="44" y="194" width="34" height="28" rx="5" fill="#fdf2f8" stroke="#f9a8d4" stroke-width="2"/>
<text x="61" y="209" text-anchor="middle" dominant-baseline="central" font-family="monospace" font-size="11" font-weight="bold" fill="#1e293b">N</text>
<text x="86" y="209" dominant-baseline="central" font-family="sans-serif" font-size="12" fill="#374151">number of branches</text>
<rect x="336" y="194" width="34" height="28" rx="5" fill="#fefce8" stroke="#fde047" stroke-width="2"/>
<text x="353" y="209" text-anchor="middle" dominant-baseline="central" font-family="monospace" font-size="11" font-weight="bold" fill="#1e293b">K</text>
<text x="378" y="209" dominant-baseline="central" font-family="sans-serif" font-size="12" fill="#374151">branch character</text>
<rect x="628" y="194" width="34" height="28" rx="5" fill="#ffffff" stroke="#cbd5e1" stroke-width="2"/>
<text x="645" y="209" text-anchor="middle" dominant-baseline="central" font-family="monospace" font-size="11" font-weight="bold" fill="#1e293b">L</text>
<text x="670" y="209" dominant-baseline="central" font-family="sans-serif" font-size="12" fill="#374151">segment length</text>
<rect x="920" y="194" width="34" height="28" rx="5" fill="#ffffff" stroke="#cbd5e1" stroke-width="2" stroke-dasharray="5,3"/>
<text x="937" y="209" text-anchor="middle" dominant-baseline="central" font-family="monospace" font-size="11" font-weight="bold" fill="#1e293b">S</text>
<text x="962" y="209" dominant-baseline="central" font-family="sans-serif" font-size="12" fill="#374151">segment character</text>
<rect x="44" y="232" width="34" height="28" rx="5" fill="#faf5ff" stroke="#a78bfa" stroke-width="2"/>
<text x="61" y="247" text-anchor="middle" dominant-baseline="central" font-family="monospace" font-size="11" font-weight="bold" fill="#1e293b">bud</text>
<text x="86" y="247" dominant-baseline="central" font-family="sans-serif" font-size="12" fill="#374151">update result, continue</text>
<rect x="336" y="232" width="34" height="28" rx="5" fill="#f0fdf4" stroke="#4ade80" stroke-width="2"/>
<text x="353" y="247" text-anchor="middle" dominant-baseline="central" font-family="monospace" font-size="11" font-weight="bold" fill="#1e293b">leaf</text>
<text x="378" y="247" dominant-baseline="central" font-family="sans-serif" font-size="12" fill="#374151">update result, stop</text>
<rect x="628" y="232" width="34" height="28" rx="5" fill="#fff7ed" stroke="#fb923c" stroke-width="2"/>
<text x="645" y="247" text-anchor="middle" dominant-baseline="central" font-family="monospace" font-size="11" font-weight="bold" fill="#1e293b">*</text>
<text x="670" y="247" dominant-baseline="central" font-family="sans-serif" font-size="12" fill="#374151">accept partial match</text>
<rect x="920" y="232" width="34" height="28" rx="5" fill="#eff6ff" stroke="#93c5fd" stroke-width="2"/>
<text x="937" y="247" text-anchor="middle" dominant-baseline="central" font-family="monospace" font-size="11" font-weight="bold" fill="#1e293b">J</text>
<text x="962" y="247" dominant-baseline="central" font-family="sans-serif" font-size="12" fill="#374151">jump offset</text>
<defs>
  <marker id="jump-arrow" markerWidth="8" markerHeight="6" refX="8" refY="3" orient="auto" markerUnits="userSpaceOnUse">
    <polygon points="0 0, 8 3, 0 6" fill="#94a3b8"/>
  </marker>
</defs>
<text x="534" y="163" text-anchor="middle" font-family="sans-serif" font-size="9" fill="#64748b">jump to c...</text>
<path d="M 312,105 L 312,152 L 756,152 L 756,105" stroke="#94a3b8" stroke-width="1.2" stroke-dasharray="5,3" fill="none" stroke-linejoin="round" marker-end="url(#jump-arrow)"/>
</svg>
